<svg width="16" height="16" viewBox="0 0 16 16" fill="none" xmlns="http://www.w3.org/2000/svg">
<g clip-path="url(#clip0_4067_2157)">
<path fill-rule="evenodd" clip-rule="evenodd" d="M13.5422 3.00614C12.5068 2.53989 11.4041 2.19633 10.2425 2.00001C10.0994 2.24541 9.93107 2.58079 9.82164 2.85073C8.59268 2.67077 7.37213 2.67077 6.16843 2.85073C6.05059 2.58079 5.88224 2.24541 5.73914 2.00001C4.57752 2.19633 3.47482 2.53989 2.43946 3.00614C0.351911 6.06544 -0.212064 9.05115 0.0657148 11.9877C1.45461 12.9939 2.793 13.5992 4.11455 14C4.44284 13.5665 4.72903 13.1002 4.98156 12.6176C4.50176 12.4458 4.04721 12.225 3.61792 11.9714C3.69362 11.9188 3.76584 11.8629 3.83683 11.808C3.87633 11.7774 3.91551 11.747 3.95462 11.7178C6.5893 12.9121 9.44285 12.9121 12.0439 11.7178C12.1533 11.8078 12.2627 11.8896 12.3806 11.9714C11.9513 12.225 11.4883 12.4376 11.0169 12.6176C11.2695 13.1002 11.5557 13.5665 11.8839 14C13.2055 13.5992 14.5523 12.9939 15.9328 11.9877C16.2611 8.57671 15.3688 5.62373 13.559 3.00614H13.5422ZM5.33515 10.1881C4.5439 10.1881 3.89575 9.47643 3.89575 8.60118C3.89575 7.72592 4.52707 7.01427 5.33515 7.01427C6.14324 7.01427 6.78296 7.72592 6.77454 8.60118C6.77454 9.46825 6.14324 10.1881 5.33515 10.1881ZM9.20679 8.60123C9.20679 9.47649 9.85494 10.1881 10.6462 10.1881C11.4543 10.1881 12.0856 9.46831 12.0856 8.60123C12.094 7.72598 11.4543 7.01433 10.6462 7.01433C9.8381 7.01433 9.20679 7.72598 9.20679 8.60123Z" fill="#5764F1"/>
</g>
<defs>
<clipPath id="clip0_4067_2157">
<rect width="16" height="16" fill="white"/>
</clipPath>
</defs>
</svg>
