<svg width="134" height="36" viewBox="0 0 134 36" fill="none" xmlns="http://www.w3.org/2000/svg">
<g clip-path="url(#clip0_3877_6057)">
<path fill-rule="evenodd" clip-rule="evenodd" d="M23.2212 12.0767C29.2413 12.0297 33.8359 12.163 35.9419 15.0474L35.94 15.0455C37.1362 16.7789 38.1461 21.2065 33.5849 26.0597C32.0259 27.7342 30.1708 29.2068 27.0725 31.2324C22.4662 34.1561 18.6384 36.0424 16.4519 35.9993C13.3654 35.9993 12.5457 33.8776 13.1614 31.8089C13.1614 31.8089 15.6754 25.9949 15.9166 24.5184C15.9599 24.091 15.6656 24.0789 14.9811 24.051C14.89 24.0473 14.7921 24.0433 14.6871 24.038C12.8673 24.0517 9.51993 24.0713 6.11962 24.0811C3.52919 24.036 1.26428 22.7634 0.460285 20.6418C-0.586869 17.8554 -0.137809 13.6572 4.89402 9.4178C9.13362 5.70196 12.5398 3.07636 17.403 0.66058C19.2443 -0.272792 21.1504 -0.213966 22.3662 0.817449C23.3643 1.66454 23.6977 3.00381 23.2565 4.39995C22.9356 5.41353 22.2514 6.83715 21.5276 8.34348L21.523 8.35305C21.0857 9.26485 20.2327 11.1492 20.2307 11.1551C19.7941 12.1058 20.0719 12.1034 22.3602 12.083C22.6205 12.0807 22.9069 12.0781 23.2212 12.0767ZM19.6914 30.2069C25.7116 27.4087 29.8767 24.7733 31.969 22.0713L31.9651 22.0693C32.9966 20.7379 34.279 18.7025 33.1299 16.671C31.9769 15.0965 28.5609 14.6553 21.8348 14.8219C17.4991 14.9298 15.5185 14.4415 16.6853 11.5767C17.3203 9.9218 18.6226 7.37711 19.4759 5.70987C19.8611 4.95716 20.1548 4.3833 20.2542 4.15092C20.817 2.9293 20.1797 2.96067 19.36 3.29598C19.209 3.35677 18.2697 3.82541 17.9893 3.97444C13.8693 6.12551 10.7965 8.51972 7.01382 11.8375C5.56467 13.1062 4.62145 14.3768 4.27828 15.469C4.09983 16.0455 4.08807 16.575 4.25671 17.026C4.59399 17.9201 5.46662 18.5162 6.96088 18.5201C7.90598 18.5201 9.34503 18.5052 10.8416 18.4896C13.3291 18.4638 15.9755 18.4363 16.7775 18.4731C20.9033 18.7025 21.8387 19.4496 21.7661 21.9124C21.6818 23.4144 19.9601 27.6107 18.9424 29.9657C18.7247 30.4794 18.709 30.65 19.6914 30.2069ZM129.871 22.8458C130.954 23.7631 131.857 24.2385 132.539 24.5979C133.418 25.0606 133.932 25.3311 133.997 26.1048C134.118 27.5578 130.622 31.8285 128.875 31.9736C127.712 32.0717 126.182 31.3187 124.219 28.8892C123.557 28.0755 123.039 27.3601 122.615 26.7747L122.615 26.7746C121.813 25.6671 121.347 25.0251 120.886 25.0635C120.595 25.0871 120.364 25.3185 120.409 25.8577C120.491 26.8383 120.685 27.436 120.865 27.9908C121.021 28.4722 121.166 28.9212 121.219 29.5598C121.354 31.1814 116.732 32.9894 114.818 33.1501C113.322 33.2756 112.495 32.3834 112.352 30.6775C112.157 28.3478 112.181 25.6166 112.207 22.6448C112.238 19.0955 112.272 15.203 111.94 11.2414C111.681 8.14516 111.328 6.66934 111.1 5.71661C110.991 5.26168 110.911 4.92602 110.883 4.59016C110.708 2.51164 115.52 0.476265 119.264 0.162526C120.76 0.037031 121.448 0.733138 121.576 2.27046C121.647 3.12146 121.318 6.1556 121.014 8.95693L121.014 8.95743C120.754 11.3584 120.512 13.5883 120.556 14.1258C120.597 14.6239 120.782 14.8161 120.99 14.7984C121.048 14.7933 121.278 14.5376 121.63 14.1466C122.773 12.8762 125.201 10.1779 127.206 10.01C129.033 9.85704 132.626 12.7375 132.806 14.9023C132.873 15.6906 131.481 16.5612 130.318 17.2044C127.68 18.7201 127.304 19.2123 127.374 20.0457C127.438 20.8155 127.893 21.1961 129.268 22.3468L129.268 22.347C129.451 22.5006 129.651 22.6679 129.869 22.8517L129.871 22.8458ZM64.534 9.46489C64.534 11.5512 61.3632 14.1768 59.6101 14.1768C58.6902 14.1768 58.3878 13.7881 57.8708 13.1236C57.8014 13.0345 57.7282 12.9403 57.6491 12.8415C56.4804 11.3846 55.9391 11.0473 54.9783 11.0473C54.6861 11.0473 54.1841 11.465 54.1841 11.965C54.1841 13.2063 55.7443 13.9921 57.6904 14.9722C60.915 16.5962 65.1988 18.7536 65.1988 24.4008C65.1988 29.8265 60.318 32.9149 54.892 32.9149C49.0914 32.9149 43.4596 28.7421 43.4596 25.2361C43.4596 22.4811 47.0893 19.8104 48.4679 19.8104C49.0468 19.8104 49.5369 20.6422 50.1054 21.607C50.8906 22.9397 51.8254 24.5263 53.3507 24.5263C54.5606 24.5263 55.0606 23.5674 55.0606 22.8576C55.0606 21.983 53.7414 21.3044 52.0565 20.4378C49.0797 18.9066 44.9617 16.7883 44.9617 11.965C44.9617 6.58242 49.6758 3.08032 54.8077 3.08032C60.6082 3.08032 64.5301 6.58242 64.5301 9.46489H64.534ZM82.2289 10.7375C78.8192 11.0001 76.1204 13.4224 75.2634 14.8288C74.7516 13.6116 73.9939 11.9613 71.8769 12.1238C68.7963 12.3611 64.7979 14.7632 64.9253 16.426C64.9933 17.3145 65.3533 18.3368 65.7534 19.4729C66.253 20.8916 66.8151 22.4877 66.949 24.2224C67.1301 26.5833 66.9853 27.8789 66.8764 28.8527V28.8528C66.8108 29.44 66.7582 29.9102 66.798 30.4265C66.9294 32.1344 70.867 33.2521 73.6124 33.0404C76.7754 32.7953 76.7578 29.2834 76.2499 22.7086C76.0538 20.1712 77.5853 18.3358 78.8344 18.2398C79.6247 18.179 80.1248 18.6868 80.2522 20.3497C80.3627 21.7864 80.1187 23.519 79.8784 25.2252C79.6452 26.8815 79.4154 28.5129 79.5169 29.8246C79.6424 31.4462 80.5503 32.3776 82.5897 32.2207C85.9998 31.958 89.9531 30.0206 89.8178 28.2755C89.7831 27.8244 89.6545 27.5006 89.4902 27.0869C89.1995 26.3549 88.7969 25.3411 88.604 22.8419C88.5218 21.7816 88.6866 20.8756 88.8661 19.8885C89.0808 18.7087 89.3164 17.4133 89.1766 15.6004C88.9216 12.314 86.0998 10.4394 82.2289 10.7375ZM102.738 23.2182C106.132 22.5692 110.713 21.6934 110.713 18.4358V18.4339C110.713 14.1768 107.332 10.8806 101.532 10.8806C94.9803 10.8806 90.0151 15.7239 90.0151 22.2732C90.0151 28.8225 95.0627 32.8697 101.322 32.8697C106.872 32.8697 111.129 29.6147 111.129 27.8205C111.129 26.193 109.084 23.8596 107.748 23.7341C107.311 23.7341 106.774 24.0987 106.116 24.5448C105.079 25.248 103.743 26.1538 102.032 26.1538C99.8631 26.1538 99.1532 25.3616 99.1532 24.5674C99.1532 23.9035 100.74 23.6001 102.738 23.2182ZM98.0688 18.8123C98.0688 17.6439 99.9467 16.4342 101.866 16.4338C102.826 16.4341 103.409 16.934 103.409 17.5593C103.409 18.228 100.322 19.4378 98.7375 19.4378C98.3198 19.4378 98.0688 19.0594 98.0688 18.8123Z" fill="white"/>
<path d="M31.9677 22.0712C29.8754 24.7733 25.7103 27.4087 19.6902 30.2068C18.7077 30.65 18.7234 30.4794 18.9411 29.9656C19.9588 27.6106 21.6805 23.4144 21.7649 21.9124C21.8374 19.4495 20.902 18.7024 16.7762 18.473C15.4917 18.4142 9.4755 18.5201 6.95958 18.5201C5.46533 18.5162 4.5927 17.9201 4.25542 17.0259C4.08677 16.5749 4.09854 16.0455 4.27699 15.469C4.62015 14.3768 5.56338 13.1061 7.01253 11.8375C10.7952 8.51967 13.8681 6.12545 17.988 3.97438C18.2685 3.82536 19.2078 3.35671 19.3588 3.29592C20.1784 2.96062 20.8157 2.92924 20.253 4.15086C19.9333 4.89795 17.6056 9.1746 16.684 11.5767C15.5172 14.4415 17.4978 14.9297 21.8335 14.8219C28.5596 14.6552 31.9756 15.0964 33.1286 16.671C34.2778 18.7024 32.9953 20.7378 31.9638 22.0692L31.9677 22.0712Z" fill="#151515"/>
</g>
<defs>
<clipPath id="clip0_3877_6057">
<rect width="134" height="36" fill="white"/>
</clipPath>
</defs>
</svg>
