<svg width="134" height="54" viewBox="0 0 134 54" fill="none" xmlns="http://www.w3.org/2000/svg">
<g clip-path="url(#clip0_4056_423)">
<path fill-rule="evenodd" clip-rule="evenodd" d="M23.2212 21.0767C29.2413 21.0297 33.8359 21.163 35.9419 24.0474L35.94 24.0455C37.1362 25.7789 38.1461 30.2065 33.5849 35.0597C32.0259 36.7342 30.1708 38.2068 27.0725 40.2324C22.4662 43.1561 18.6384 45.0424 16.4519 44.9993C13.3654 44.9993 12.5457 42.8776 13.1614 40.8089C13.1614 40.8089 15.6754 34.9949 15.9166 33.5184C15.9599 33.091 15.6656 33.0789 14.9811 33.051C14.89 33.0473 14.7921 33.0433 14.6871 33.038C12.8673 33.0517 9.51993 33.0713 6.11962 33.0811C3.52919 33.036 1.26428 31.7634 0.460285 29.6418C-0.586869 26.8554 -0.137809 22.6572 4.89402 18.4178C9.13362 14.702 12.5398 12.0764 17.403 9.66058C19.2443 8.72721 21.1504 8.78603 22.3662 9.81745C23.3643 10.6645 23.6977 12.0038 23.2565 13.3999C22.9356 14.4135 22.2514 15.8372 21.5276 17.3435L21.523 17.3531C21.0857 18.2649 20.2327 20.1492 20.2307 20.1551C19.7941 21.1058 20.0719 21.1034 22.3602 21.083C22.6205 21.0807 22.9069 21.0781 23.2212 21.0767ZM19.6914 39.2069C25.7116 36.4087 29.8767 33.7733 31.969 31.0713L31.9651 31.0693C32.9966 29.7379 34.279 27.7025 33.1299 25.671C31.9769 24.0965 28.5609 23.6553 21.8348 23.8219C17.4991 23.9298 15.5185 23.4415 16.6853 20.5767C17.3203 18.9218 18.6226 16.3771 19.4759 14.7099C19.8611 13.9572 20.1548 13.3833 20.2542 13.1509C20.817 11.9293 20.1797 11.9607 19.36 12.296C19.209 12.3568 18.2697 12.8254 17.9893 12.9744C13.8693 15.1255 10.7965 17.5197 7.01382 20.8375C5.56467 22.1062 4.62145 23.3768 4.27828 24.469C4.09983 25.0455 4.08807 25.575 4.25671 26.026C4.59399 26.9201 5.46662 27.5162 6.96088 27.5201C7.90598 27.5201 9.34503 27.5052 10.8416 27.4896C13.3291 27.4638 15.9755 27.4363 16.7775 27.4731C20.9033 27.7025 21.8387 28.4496 21.7661 30.9124C21.6818 32.4144 19.9601 36.6107 18.9424 38.9657C18.7247 39.4794 18.709 39.65 19.6914 39.2069ZM129.871 31.8458C130.954 32.7631 131.857 33.2385 132.539 33.5979C133.418 34.0606 133.932 34.3311 133.997 35.1048C134.118 36.5578 130.622 40.8285 128.875 40.9736C127.712 41.0717 126.182 40.3187 124.219 37.8892C123.557 37.0755 123.039 36.3601 122.615 35.7747L122.615 35.7746C121.813 34.6671 121.347 34.0251 120.886 34.0635C120.595 34.0871 120.364 34.3185 120.409 34.8577C120.491 35.8383 120.685 36.436 120.865 36.9908C121.021 37.4722 121.166 37.9212 121.219 38.5598C121.354 40.1814 116.732 41.9894 114.818 42.1501C113.322 42.2756 112.495 41.3834 112.352 39.6775C112.157 37.3478 112.181 34.6166 112.207 31.6448C112.238 28.0955 112.272 24.203 111.94 20.2414C111.681 17.1452 111.328 15.6693 111.1 14.7166C110.991 14.2617 110.911 13.926 110.883 13.5902C110.708 11.5116 115.52 9.47626 119.264 9.16253C120.76 9.03703 121.448 9.73314 121.576 11.2705C121.647 12.1215 121.318 15.1556 121.014 17.9569L121.014 17.9574C120.754 20.3584 120.512 22.5883 120.556 23.1258C120.597 23.6239 120.782 23.8161 120.99 23.7984C121.048 23.7933 121.278 23.5376 121.63 23.1466C122.773 21.8762 125.201 19.1779 127.206 19.01C129.033 18.857 132.626 21.7375 132.806 23.9023C132.873 24.6906 131.481 25.5612 130.318 26.2044C127.68 27.7201 127.304 28.2123 127.374 29.0457C127.438 29.8155 127.893 30.1961 129.268 31.3468L129.268 31.347C129.451 31.5006 129.651 31.6679 129.869 31.8517L129.871 31.8458ZM64.534 18.4649C64.534 20.5512 61.3632 23.1768 59.6101 23.1768C58.6902 23.1768 58.3878 22.7881 57.8708 22.1236C57.8014 22.0345 57.7282 21.9403 57.6491 21.8415C56.4804 20.3846 55.9391 20.0473 54.9783 20.0473C54.6861 20.0473 54.1841 20.465 54.1841 20.965C54.1841 22.2063 55.7443 22.9921 57.6904 23.9722C60.915 25.5962 65.1988 27.7536 65.1988 33.4008C65.1988 38.8265 60.318 41.9149 54.892 41.9149C49.0914 41.9149 43.4596 37.7421 43.4596 34.2361C43.4596 31.4811 47.0893 28.8104 48.4679 28.8104C49.0468 28.8104 49.5369 29.6422 50.1054 30.607C50.8906 31.9397 51.8254 33.5263 53.3507 33.5263C54.5606 33.5263 55.0606 32.5674 55.0606 31.8576C55.0606 30.983 53.7414 30.3044 52.0565 29.4378C49.0797 27.9066 44.9617 25.7883 44.9617 20.965C44.9617 15.5824 49.6758 12.0803 54.8077 12.0803C60.6082 12.0803 64.5301 15.5824 64.5301 18.4649H64.534ZM82.2289 19.7375C78.8192 20.0001 76.1204 22.4224 75.2634 23.8288C74.7516 22.6116 73.9939 20.9613 71.8769 21.1238C68.7963 21.3611 64.7979 23.7632 64.9253 25.426C64.9933 26.3145 65.3533 27.3368 65.7534 28.4729C66.253 29.8916 66.8151 31.4877 66.949 33.2224C67.1301 35.5833 66.9853 36.8789 66.8764 37.8527V37.8528C66.8108 38.44 66.7582 38.9102 66.798 39.4265C66.9294 41.1344 70.867 42.2521 73.6124 42.0404C76.7754 41.7953 76.7578 38.2834 76.2499 31.7086C76.0538 29.1712 77.5853 27.3358 78.8344 27.2398C79.6247 27.179 80.1248 27.6868 80.2522 29.3497C80.3627 30.7864 80.1187 32.519 79.8784 34.2252C79.6452 35.8815 79.4154 37.5129 79.5169 38.8246C79.6424 40.4462 80.5503 41.3776 82.5897 41.2207C85.9998 40.958 89.9531 39.0206 89.8178 37.2755C89.7831 36.8244 89.6545 36.5006 89.4902 36.0869C89.1995 35.3549 88.7969 34.3411 88.604 31.8419C88.5218 30.7816 88.6866 29.8756 88.8661 28.8885C89.0808 27.7087 89.3164 26.4133 89.1766 24.6004C88.9216 21.314 86.0998 19.4394 82.2289 19.7375ZM102.738 32.2182C106.132 31.5692 110.713 30.6934 110.713 27.4358V27.4339C110.713 23.1768 107.332 19.8806 101.532 19.8806C94.9803 19.8806 90.0151 24.7239 90.0151 31.2732C90.0151 37.8225 95.0627 41.8697 101.322 41.8697C106.872 41.8697 111.129 38.6147 111.129 36.8205C111.129 35.193 109.084 32.8596 107.748 32.7341C107.311 32.7341 106.774 33.0987 106.116 33.5448C105.079 34.248 103.743 35.1538 102.032 35.1538C99.8631 35.1538 99.1532 34.3616 99.1532 33.5674C99.1532 32.9035 100.74 32.6001 102.738 32.2182ZM98.0688 27.8123C98.0688 26.6439 99.9467 25.4342 101.866 25.4338C102.826 25.4341 103.409 25.934 103.409 26.5593C103.409 27.228 100.322 28.4378 98.7375 28.4378C98.3198 28.4378 98.0688 28.0594 98.0688 27.8123Z" fill="white"/>
<path d="M31.9677 31.0712C29.8754 33.7733 25.7103 36.4087 19.6902 39.2068C18.7077 39.65 18.7234 39.4794 18.9411 38.9656C19.9588 36.6106 21.6805 32.4144 21.7649 30.9124C21.8374 28.4495 20.902 27.7024 16.7762 27.473C15.4917 27.4142 9.4755 27.5201 6.95958 27.5201C5.46533 27.5162 4.5927 26.9201 4.25542 26.0259C4.08677 25.5749 4.09854 25.0455 4.27699 24.469C4.62015 23.3768 5.56338 22.1061 7.01253 20.8375C10.7952 17.5197 13.8681 15.1255 17.988 12.9744C18.2685 12.8254 19.2078 12.3567 19.3588 12.2959C20.1784 11.9606 20.8157 11.9292 20.253 13.1509C19.9333 13.898 17.6056 18.1746 16.684 20.5767C15.5172 23.4415 17.4978 23.9297 21.8335 23.8219C28.5596 23.6552 31.9756 24.0964 33.1286 25.671C34.2778 27.7024 32.9953 29.7378 31.9638 31.0692L31.9677 31.0712Z" fill="#151515"/>
</g>
<defs>
<clipPath id="clip0_4056_423">
<rect width="134" height="36" fill="white" transform="translate(0 9)"/>
</clipPath>
</defs>
</svg>
