<svg width="16" height="16" viewBox="0 0 16 16" fill="none" xmlns="http://www.w3.org/2000/svg">
<path d="M7.99967 8.66666C8.36786 8.66666 8.66634 8.36818 8.66634 7.99999C8.66634 7.63181 8.36786 7.33333 7.99967 7.33333C7.63148 7.33333 7.33301 7.63181 7.33301 7.99999C7.33301 8.36818 7.63148 8.66666 7.99967 8.66666Z" fill="#151515" stroke="#151515" stroke-width="2" stroke-linecap="round" stroke-linejoin="round"/>
<path d="M12.6667 8.66666C13.0349 8.66666 13.3333 8.36818 13.3333 7.99999C13.3333 7.63181 13.0349 7.33333 12.6667 7.33333C12.2985 7.33333 12 7.63181 12 7.99999C12 8.36818 12.2985 8.66666 12.6667 8.66666Z" fill="#151515" stroke="#151515" stroke-width="2" stroke-linecap="round" stroke-linejoin="round"/>
<path d="M3.33366 8.66666C3.70185 8.66666 4.00033 8.36818 4.00033 7.99999C4.00033 7.63181 3.70185 7.33333 3.33366 7.33333C2.96547 7.33333 2.66699 7.63181 2.66699 7.99999C2.66699 8.36818 2.96547 8.66666 3.33366 8.66666Z" fill="#151515" stroke="#151515" stroke-width="2" stroke-linecap="round" stroke-linejoin="round"/>
</svg>
